<?xml version="1.0" encoding="UTF-8" standalone="no"?>
<!-- Created with Inkscape (http://www.inkscape.org/) -->

<svg
   xmlns:dc="http://purl.org/dc/elements/1.1/"
   xmlns:cc="http://creativecommons.org/ns#"
   xmlns:rdf="http://www.w3.org/1999/02/22-rdf-syntax-ns#"
   xmlns:svg="http://www.w3.org/2000/svg"
   xmlns="http://www.w3.org/2000/svg"
   xmlns:xlink="http://www.w3.org/1999/xlink"
   xmlns:sodipodi="http://sodipodi.sourceforge.net/DTD/sodipodi-0.dtd"
   xmlns:inkscape="http://www.inkscape.org/namespaces/inkscape"
   width="96"
   height="96"
   id="svg6517"
   version="1.1"
   inkscape:version="0.48.4 r9939"
   sodipodi:docname="icon.svg">
  <defs
     id="defs6519">
    <linearGradient
       inkscape:collect="always"
       xlink:href="#Background"
       id="linearGradient6461"
       gradientUnits="userSpaceOnUse"
       x1="0"
       y1="970.29498"
       x2="144"
       y2="970.29498"
       gradientTransform="matrix(0,-0.66666669,0.6660448,0,-866.25992,731.29077)" />
    <linearGradient
       id="Background">
      <stop
         id="stop4178"
         offset="0"
         style="stop-color:#c8c8c8;stop-opacity:1;" />
      <stop
         id="stop4180"
         offset="1"
         style="stop-color:#ffffff;stop-opacity:1;" />
    </linearGradient>
    <filter
       style="color-interpolation-filters:sRGB;"
       inkscape:label="Inner Shadow"
       id="filter1121">
      <feFlood
         flood-opacity="0.59999999999999998"
         flood-color="rgb(0,0,0)"
         result="flood"
         id="feFlood1123" />
      <feComposite
         in="flood"
         in2="SourceGraphic"
         operator="out"
         result="composite1"
         id="feComposite1125" />
      <feGaussianBlur
         in="composite1"
         stdDeviation="1"
         result="blur"
         id="feGaussianBlur1127" />
      <feOffset
         dx="0"
         dy="2"
         result="offset"
         id="feOffset1129" />
      <feComposite
         in="offset"
         in2="SourceGraphic"
         operator="atop"
         result="composite2"
         id="feComposite1131" />
    </filter>
    <filter
       style="color-interpolation-filters:sRGB;"
       inkscape:label="Drop Shadow"
       id="filter950">
      <feFlood
         flood-opacity="0.25"
         flood-color="rgb(0,0,0)"
         result="flood"
         id="feFlood952" />
      <feComposite
         in="flood"
         in2="SourceGraphic"
         operator="in"
         result="composite1"
         id="feComposite954" />
      <feGaussianBlur
         in="composite1"
         stdDeviation="1"
         result="blur"
         id="feGaussianBlur956" />
      <feOffset
         dx="0"
         dy="1"
         result="offset"
         id="feOffset958" />
      <feComposite
         in="SourceGraphic"
         in2="offset"
         operator="over"
         result="composite2"
         id="feComposite960" />
    </filter>
    <clipPath
       clipPathUnits="userSpaceOnUse"
       id="clipPath873">
      <g
         transform="matrix(0,-0.66666667,0.66604479,0,-258.25992,677.00001)"
         id="g875"
         inkscape:label="Layer 1"
         style="fill:#ff00ff;fill-opacity:1;stroke:none;display:inline">
        <path
           style="fill:#ff00ff;fill-opacity:1;stroke:none;display:inline"
           d="m 46.702703,898.22775 50.594594,0 C 138.16216,898.22775 144,904.06497 144,944.92583 l 0,50.73846 c 0,40.86071 -5.83784,46.69791 -46.702703,46.69791 l -50.594594,0 C 5.8378378,1042.3622 0,1036.525 0,995.66429 L 0,944.92583 C 0,904.06497 5.8378378,898.22775 46.702703,898.22775 Z"
           id="path877"
           inkscape:connector-curvature="0"
           sodipodi:nodetypes="sssssssss" />
      </g>
    </clipPath>
    <filter
       inkscape:collect="always"
       id="filter891"
       inkscape:label="Badge Shadow">
      <feGaussianBlur
         inkscape:collect="always"
         stdDeviation="0.71999962"
         id="feGaussianBlur893" />
    </filter>
    <filter
       id="filter5137"
       inkscape:menu-tooltip="Make the lightest parts of the object progressively transparent"
       inkscape:menu="Transparency utilities"
       inkscape:label="Light eraser"
       height="1"
       width="1"
       y="0"
       x="0"
       color-interpolation-filters="sRGB">
      <feColorMatrix
         id="feColorMatrix5139"
         result="result14"
         type="luminanceToAlpha"
         in="SourceGraphic" />
      <feComposite
         id="feComposite5141"
         in2="result14"
         in="SourceGraphic"
         result="fbSourceGraphic"
         operator="out" />
      <feBlend
         id="feBlend5143"
         in2="fbSourceGraphic"
         mode="normal"
         result="result15" />
    </filter>
  </defs>
  <sodipodi:namedview
     id="base"
     pagecolor="#ffffff"
     bordercolor="#666666"
     borderopacity="1.0"
     inkscape:pageopacity="0.0"
     inkscape:pageshadow="2"
     inkscape:zoom="1"
     inkscape:cx="41.48022"
     inkscape:cy="44.597603"
     inkscape:document-units="px"
     inkscape:current-layer="layer3"
     showgrid="false"
     fit-margin-top="0"
     fit-margin-left="0"
     fit-margin-right="0"
     fit-margin-bottom="0"
     inkscape:window-width="1128"
     inkscape:window-height="690"
     inkscape:window-x="89"
     inkscape:window-y="67"
     inkscape:window-maximized="0"
     showborder="true"
     showguides="false"
     inkscape:guide-bbox="true"
     inkscape:showpageshadow="false">
    <inkscape:grid
       type="xygrid"
       id="grid821" />
    <sodipodi:guide
       orientation="1,0"
       position="16,48"
       id="guide823" />
    <sodipodi:guide
       orientation="0,1"
       position="64,80"
       id="guide825" />
    <sodipodi:guide
       orientation="1,0"
       position="80,40"
       id="guide827" />
    <sodipodi:guide
       orientation="0,1"
       position="64,16"
       id="guide829" />
  </sodipodi:namedview>
  <metadata
     id="metadata6522">
    <rdf:RDF>
      <cc:Work
         rdf:about="">
        <dc:format>image/svg+xml</dc:format>
        <dc:type
           rdf:resource="http://purl.org/dc/dcmitype/StillImage" />
        <dc:title />
      </cc:Work>
    </rdf:RDF>
  </metadata>
  <g
     inkscape:label="BACKGROUND"
     inkscape:groupmode="layer"
     id="layer1"
     transform="translate(268,-635.29076)"
     style="display:inline">
    <path
       style="fill:url(#linearGradient6461);fill-opacity:1;stroke:none;display:inline;filter:url(#filter1121)"
       d="m -268,700.15563 0,-33.72973 c 0,-27.24324 3.88785,-31.13513 31.10302,-31.13513 l 33.79408,0 c 27.21507,0 31.1029,3.89189 31.1029,31.13513 l 0,33.72973 c 0,27.24325 -3.88783,31.13514 -31.1029,31.13514 l -33.79408,0 C -264.11215,731.29077 -268,727.39888 -268,700.15563 Z"
       id="path6455"
       inkscape:connector-curvature="0"
       sodipodi:nodetypes="sssssssss" />
  </g>
  <g
     inkscape:groupmode="layer"
     id="layer3"
     inkscape:label="PLACE YOUR PICTOGRAM HERE"
     style="display:inline">
    <g
       transform="matrix(0.10084776,0,0,0.10084776,8.7307489,10.677994)"
       id="layer1-1"
       inkscape:label="Livello 1"
       style="filter:url(#filter5137)">
      <rect
         y="52.714508"
         x="69.998833"
         height="179.55621"
         width="634.61993"
         id="rect3009"
         style="fill:#ffffff;fill-opacity:1;fill-rule:nonzero;stroke:none" />
      <path
         inkscape:connector-curvature="0"
         id="path3798"
         d="M 119.65625,57.71875 C 88.214965,57.361607 75,88.352672 75,126.125 c 0,37.77233 13.214965,68.375 44.65625,68.375 31.44129,0 44.625,-30.60267 44.625,-68.375 0,-37.772328 -13.18371,-68.049107 -44.625,-68.40625 z m 0,12.15625 c 17.88508,0 27.84375,18.755413 27.84375,56.25 0,37.49459 -10.31582,56.25 -27.84375,56.25 -17.52793,0 -27.875,-18.04113 -27.875,-56.25 0,-38.208873 9.98992,-56.25 27.875,-56.25 z"
         style="fill:#e76f00;fill-opacity:1;stroke:none" />
      <path
         inkscape:connector-curvature="0"
         id="path3824"
         d="m 222.1875,93.0625 c -5.14716,0.148067 -10.24532,2.387818 -14.6875,5 -2.99461,1.760948 -7.59375,7.15625 -7.59375,7.15625 l 0,-10.90625 -14.5625,0 0,132.34375 14.5625,0 0,-32.5 c 0,0 13.93983,0.67385 20.4375,-1.4375 C 226.75246,190.6363 232.93138,186.95337 237.5,182 c 5.08999,-5.51864 8.25696,-12.78829 10.34375,-20 2.32481,-8.03429 2.34895,-16.63833 2.15625,-25 -0.18814,-8.16367 -0.23844,-16.67871 -3.21875,-24.28125 -2.182,-5.5661 -5.61511,-10.99804 -10.34375,-14.65625 -3.72496,-2.881734 -8.51091,-4.873619 -13.21875,-5 -0.34343,-0.0092 -0.68811,-0.0099 -1.03125,0 z m -3.71875,12.46875 c 0.27471,0.002 0.53597,0.005 0.8125,0.0312 3.19083,0.3059 5.94868,2.73688 8.21875,5 3.06539,3.05601 5.48888,6.9627 6.78125,11.09375 1.88688,6.03136 1.0732,12.58664 1.0625,18.90625 -0.0101,5.96308 0.16933,12.04054 -1.0625,17.875 -1.1283,5.34413 -2.52663,10.91169 -5.71875,15.34375 -2.7708,3.84708 -6.59182,7.35942 -11.0625,8.9375 -3.36778,1.18878 -7.20149,0.61965 -10.71875,0 -2.40149,-0.42308 -6.875,-2.5 -6.875,-2.5 l 0,-64.65625 c 0,0 4.33774,-3.92854 6.875,-5.34375 3.63919,-2.02983 7.56687,-4.71027 11.6875,-4.6875 z"
         style="fill:#e76f00;fill-opacity:1;stroke:none" />
      <path
         inkscape:connector-curvature="0"
         id="path3828"
         d="m 298.8125,92.71875 c -5.8813,0.184329 -11.86192,2.350733 -16.65625,5.71875 -4.79308,3.36714 -8.30447,8.6006 -10.71875,13.9375 -2.80027,6.19014 -3.24175,13.24165 -3.9375,20 -0.76895,7.46946 -0.79893,15.01116 -0.25,22.5 0.48297,6.58886 0.68763,13.44095 3.09375,19.59375 1.7196,4.39728 4.46951,8.51081 7.875,11.78125 3.31872,3.1871 7.35135,5.94347 11.78125,7.1875 6.533,1.83463 13.64967,1.11139 20.34375,0 5.08802,-0.84474 10.03134,-2.71708 14.65625,-5 1.92447,-0.94995 5.34375,-3.5625 5.34375,-3.5625 l -3.90625,-8.21875 c 0,0 -8.07694,4.24141 -12.5,5 -5.75417,0.98689 -12.09314,1.4836 -17.5,-0.71875 -4.44988,-1.81254 -8.08611,-5.63681 -10.71875,-9.65625 -2.47521,-3.77908 -3.55762,-8.38454 -4.28125,-12.84375 -0.70557,-4.34789 0,-13.21875 0,-13.21875 l 48.5625,0 c 0,0 0.64526,-19.58597 -1.78125,-28.9375 -1.5246,-5.87568 -3.35594,-12.35332 -7.875,-16.40625 C 314.99013,95.07359 307.19061,92.818537 300,92.71875 c -0.39057,-0.0054 -0.79541,-0.01229 -1.1875,0 z m 1.25,10.3125 c 1.893,-0.0501 3.84431,0.42641 5.5,1.3125 2.41411,1.29199 4.27745,3.54518 5.8125,5.8125 2.15649,3.1852 3.61914,6.86467 4.5625,10.59375 1.14015,4.50698 1.25,13.875 1.25,13.875 l -36.375,0 c 0,0 0.31992,-7.44325 1.03125,-11.09375 0.55517,-2.84908 1.1821,-5.75752 2.5,-8.34375 1.58233,-3.10515 3.57862,-6.15111 6.3125,-8.3125 2.45398,-1.9401 5.48408,-3.47204 8.59375,-3.8125 0.26668,-0.0292 0.54207,-0.0241 0.8125,-0.0312 z"
         style="fill:#e76f00;fill-opacity:1;stroke:none" />
      <path
         sodipodi:nodetypes="ccccaaaaaccccaaaaaaaccc"
         inkscape:connector-curvature="0"
         id="path3832"
         d="m 353.55339,93.979954 0,97.732256 14.2684,0 0,-75.5089 c 0,0 4.80101,-4.26318 7.44988,-6.06092 2.71289,-1.84118 5.40096,-4.0215 8.5863,-4.79822 2.61834,-0.63846 5.57736,-0.74446 8.08122,0.25254 1.88348,0.74998 3.21704,2.50938 4.54568,4.04061 1.21065,1.39525 2.35367,2.91321 3.0611,4.61965 1.27342,3.07165 2.21173,7.33775 1.98967,9.77502 l 0,67.68022 14.64721,0 0,-71.97337 c 0.11323,-1.66812 -1.48385,-7.92585 -3.03046,-11.61675 -1.27272,-3.03728 -2.89671,-6.00404 -5.06608,-8.481692 -1.55327,-1.774002 -3.46713,-3.274908 -5.54052,-4.397753 -2.34078,-1.267647 -4.93343,-2.20559 -7.57614,-2.525381 -3.10223,-0.375397 -6.32232,-0.03904 -9.34392,0.757614 -2.5128,0.66251 -4.84093,1.948963 -7.07106,3.282996 -2.16723,1.296409 -4.04169,3.029025 -6.06092,4.545686 -1.58793,1.1927 -4.76125,3.58149 -4.76125,3.58149 l 0.0893,-10.905096 z"
         style="fill:#e76f00;fill-opacity:1;stroke:none" />
      <path
         sodipodi:nodetypes="cccaaaccaacc"
         inkscape:connector-curvature="0"
         id="path3834"
         d="m 438.92857,59.147895 26.42857,0 0,128.571425 c 0.10539,2.68918 -1.1884,9.72523 -2.85714,14.28572 -1.35493,3.70287 -3.43449,7.14006 -5.71428,10.35714 -1.9378,2.73448 -4.33338,5.12335 -6.69643,7.5 -2.62976,2.64489 -8.30358,7.5 -8.30358,7.5 L 427.5,215.57647 c 0,0 4.09521,-4.80618 5.71429,-7.5 1.90713,-3.17307 3.69953,-6.50939 4.64285,-10.08929 0.72299,-2.74373 0.71429,-8.48214 0.71429,-8.48214 z"
         style="fill:#5382a1;fill-opacity:1;stroke:none" />
      <path
         inkscape:connector-curvature="0"
         id="path3836"
         d="m 532.5,58.4375 -39.65625,0.34375 0,133.9375 41.8125,0 c 0,0 11.55317,-1.24062 16.78125,-3.5625 6.31136,-2.80298 12.08128,-7.09658 16.78125,-12.15625 5.71133,-6.14842 10.36298,-13.54656 13.21875,-21.4375 3.72406,-10.29017 4.35116,-21.56011 4.625,-32.5 0.22735,-9.08307 -0.0765,-18.36825 -2.5,-27.125 C 581.73042,89.317592 578.86501,82.803261 574.65625,77.375 571.0324,72.701132 566.25151,68.77501 561.0625,65.9375 554.71931,62.46885 547.40192,61.065187 540.34375,59.5 537.76315,58.927739 532.5,58.4375 532.5,58.4375 z m 0.71875,22.125 c 0,0 7.20373,2.545716 10.34375,4.65625 3.00498,2.019773 5.79468,4.53661 7.875,7.5 2.54188,3.620887 4.24283,7.8714 5.34375,12.15625 1.69511,6.59748 1.70995,13.53235 1.78125,20.34375 0.0749,7.15832 0.29184,14.4831 -1.40625,21.4375 -0.98634,4.03948 -2.7279,7.92375 -5,11.40625 -2.20978,3.38699 -4.85362,6.69455 -8.21875,8.9375 -3.4784,2.31845 -11.78125,4.28125 -11.78125,4.28125 l -13.59375,0 0,-90.34375 14.65625,-0.375 z"
         style="fill:#5382a1;fill-opacity:1;stroke:none" />
      <path
         sodipodi:nodetypes="cccccccccccc"
         inkscape:connector-curvature="0"
         id="path3840"
         d="m 606.42857,58.612181 26.07143,0 0,57.321429 34.64286,-57.321429 30.35714,0 -43.57143,61.249999 45.71429,72.85715 -32.85714,0 -34.28572,-59.64286 0,59.64286 -26.07143,0 z"
         style="fill:#5382a1;fill-opacity:1;stroke:none" />
    </g>
    <g
       id="g5271"
       transform="matrix(0.1062241,0,0,0.1062241,35.996466,36.778293)">
      <path
         id="path5228"
         d="m 48.859,43.518 c 8.424,17.64 2.736,140.832 -7.128,184.032 -9.864,43.272 -19.728,98.28 -22.032,144.576 -1.008,19.728 2.016,27.504 14.904,27.504 22.752,0 51.624,-47.952 87.84,-46.872 36.288,1.08 47.808,55.008 64.8,54.648 16.992,-0.36 30.672,-6.264 30.816,-58.752 C 218.563,191.981 87.235,64.973 48.859,43.518 l 0,0 0,0 0,0 z"
         clip-rule="evenodd"
         inkscape:connector-curvature="0"
         style="fill-rule:evenodd" />
      <path
         id="path5230"
         d="m 162.763,168.726 c 7.992,13.464 28.368,3.096 29.232,-12.096 0.864,-15.192 -1.368,-34.344 -11.232,-35.064 -9.864,-0.72 -16.92,-10.584 -26.784,-11.304 -9.864,-0.72 -20.448,9.144 -25.056,-3.96 -4.608,-13.104 12.384,-18.648 25.056,-20.736 -11.304,-11.304 -17.928,-23.832 -22.896,-36.864 -4.968,-13.032 -8.64,-24.984 5.256,-30.096 13.896,-5.112 12.744,21.168 28.656,33.192 -4.68,-17.712 -6.408,-25.056 -6.048,-35.352 0.36,-10.296 -0.36,-18.144 14.256,-16.128 14.616,2.016 8.28,32.4 19.656,44.784 3.456,-11.736 5.544,-26.64 13.896,-32.76 8.352,-6.12 27.36,-6.264 15.264,18.864 -12.096,25.128 3.528,38.736 -0.144,58.536 -3.672,19.8 -15.048,16.2 -19.944,28.944 -4.896,12.744 2.88,41.76 -6.336,54.792 -9.216,13.032 -10.872,33.048 -4.896,49.032 -18.36,-17.136 -27.936,-53.784 -27.936,-53.784 l 0,0 0,0 0,0 z"
         clip-rule="evenodd"
         inkscape:connector-curvature="0"
         style="fill-rule:evenodd" />
      <path
         id="path5232"
         d="m 48.355,185.646 c -7.416,50.832 -33.192,56.88 -34.488,77.976 -1.296,21.096 6.84,23.112 6.336,42.624 -0.504,19.512 -17.856,27.432 -19.944,38.016 -2.088,10.584 8.928,13.968 15.336,13.968 6.408,0 12.816,-28.08 15.408,-45.936 2.592,-17.856 -8.496,-28.368 -8.496,-40.608 0,-12.24 16.056,-34.632 13.104,-14.976 13.32,-21.024 19.657,-47.809 12.744,-71.064 l 0,0 0,0 0,0 z"
         clip-rule="evenodd"
         inkscape:connector-curvature="0"
         style="fill-rule:evenodd" />
      <path
         id="path5234"
         d="m 58.292,205.013 c -5.616,27.504 -40.68,181.08 -22.824,183.024 17.856,1.944 43.272,-47.52 84.888,-47.16 41.688,0.36 58.104,55.44 68.256,55.08 10.152,-0.36 16.848,3.6 17.928,-58.464 1.08,-62.064 -36.792,-141.336 -59.184,-176.256 -30.385,1.944 -63.073,26.281 -89.064,43.776 l 0,0 0,0 0,0 z"
         clip-rule="evenodd"
         inkscape:connector-curvature="0"
         style="fill:#ffffff;fill-rule:evenodd" />
      <g
         id="g5236">
        <path
           id="path5238"
           d="m 139.162,172.181 c -1.95,-18.251 -19.12,-25.421 -35.661,-23.168 -13.889,1.893 -32.403,13.613 -34.107,28.64 -1.921,16.937 11.402,32.522 28.361,33.203 15.03,0.604 31.176,-6.668 37.93,-20.79 2.73,-5.704 3.797,-11.578 3.477,-17.885"
           inkscape:connector-curvature="0"
           style="fill:none" />
        <path
           id="path5240"
           d="m 147.082,171.533 c -1.662,-17.195 -14.407,-27.988 -30.895,-30.627 -15.924,-2.549 -33.26,4.998 -44.408,16.146 -12.538,12.538 -13.039,29.978 -4.26,44.833 8.661,14.657 27.847,19.501 43.563,15.835 21.506,-5.015 37.398,-23.824 36,-46.187"
           inkscape:connector-curvature="0" />
        <radialGradient
           gradientUnits="userSpaceOnUse"
           r="54.7155"
           cy="167.06931"
           cx="86.629898"
           id="SVGID_1_">
          <stop
             id="stop5243"
             style="stop-color:#FFFFFF"
             offset="0" />
          <stop
             id="stop5245"
             style="stop-color:#FBC8B4"
             offset="0.0604" />
          <stop
             id="stop5247"
             style="stop-color:#FBC3B0"
             offset="0.0712" />
          <stop
             id="stop5249"
             style="stop-color:#F7978B"
             offset="0.1829" />
          <stop
             id="stop5251"
             style="stop-color:#F4716B"
             offset="0.2995" />
          <stop
             id="stop5253"
             style="stop-color:#F15251"
             offset="0.4199" />
          <stop
             id="stop5255"
             style="stop-color:#EF3A3D"
             offset="0.5453" />
          <stop
             id="stop5257"
             style="stop-color:#EE292F"
             offset="0.6778" />
          <stop
             id="stop5259"
             style="stop-color:#ED1F27"
             offset="0.822" />
          <stop
             id="stop5261"
             style="stop-color:#ED1C24"
             offset="1" />
        </radialGradient>
        <path
           id="path5263"
           d="m 139.162,177.941 c -1.493,15.627 -13.947,28.182 -28.944,31.824 -15.87,3.854 -33.393,-2.257 -39.096,-18.576 -2.912,-8.332 -2.37,-16.879 2.637,-24.198 4.223,-6.171 11.033,-11 17.779,-14.066 13.924,-6.326 33.832,-7.029 43.531,7.077 3.675,5.346 4.318,11.639 4.093,17.939"
           inkscape:connector-curvature="0"
           style="fill:url(#SVGID_1_);stroke:#000000" />
      </g>
    </g>
  </g>
  <g
     inkscape:groupmode="layer"
     id="layer2"
     inkscape:label="BADGE"
     style="display:none"
     sodipodi:insensitive="true">
    <g
       style="display:inline"
       transform="translate(-340.00001,-581)"
       id="g4394"
       clip-path="none">
      <g
         id="g855">
        <g
           inkscape:groupmode="maskhelper"
           id="g870"
           clip-path="url(#clipPath873)"
           style="opacity:0.6;filter:url(#filter891)">
          <path
             transform="matrix(1.4999992,0,0,1.4999992,-29.999795,-237.54282)"
             d="m 264,552.36218 a 12,12 0 1 1 -24,0 12,12 0 1 1 24,0 z"
             sodipodi:ry="12"
             sodipodi:rx="12"
             sodipodi:cy="552.36218"
             sodipodi:cx="252"
             id="path844"
             style="color:#000000;fill:#000000;fill-opacity:1;fill-rule:nonzero;stroke:none;stroke-width:4;marker:none;visibility:visible;display:inline;overflow:visible;enable-background:accumulate"
             sodipodi:type="arc" />
        </g>
        <g
           id="g862">
          <path
             sodipodi:type="arc"
             style="color:#000000;fill:#f5f5f5;fill-opacity:1;fill-rule:nonzero;stroke:none;stroke-width:4;marker:none;visibility:visible;display:inline;overflow:visible;enable-background:accumulate"
             id="path4398"
             sodipodi:cx="252"
             sodipodi:cy="552.36218"
             sodipodi:rx="12"
             sodipodi:ry="12"
             d="m 264,552.36218 a 12,12 0 1 1 -24,0 12,12 0 1 1 24,0 z"
             transform="matrix(1.4999992,0,0,1.4999992,-29.999795,-238.54282)" />
          <path
             transform="matrix(1.25,0,0,1.25,33,-100.45273)"
             d="m 264,552.36218 a 12,12 0 1 1 -24,0 12,12 0 1 1 24,0 z"
             sodipodi:ry="12"
             sodipodi:rx="12"
             sodipodi:cy="552.36218"
             sodipodi:cx="252"
             id="path4400"
             style="color:#000000;fill:#dd4814;fill-opacity:1;fill-rule:nonzero;stroke:none;stroke-width:4;marker:none;visibility:visible;display:inline;overflow:visible;enable-background:accumulate"
             sodipodi:type="arc" />
          <path
             sodipodi:type="star"
             style="color:#000000;fill:#f5f5f5;fill-opacity:1;fill-rule:nonzero;stroke:none;stroke-width:3;marker:none;visibility:visible;display:inline;overflow:visible;enable-background:accumulate"
             id="path4459"
             sodipodi:sides="5"
             sodipodi:cx="666.19574"
             sodipodi:cy="589.50385"
             sodipodi:r1="7.2431178"
             sodipodi:r2="4.3458705"
             sodipodi:arg1="1.0471976"
             sodipodi:arg2="1.6755161"
             inkscape:flatsided="false"
             inkscape:rounded="0.1"
             inkscape:randomized="0"
             d="m 669.8173,595.77657 c -0.39132,0.22593 -3.62645,-1.90343 -4.07583,-1.95066 -0.44938,-0.0472 -4.05653,1.36297 -4.39232,1.06062 -0.3358,-0.30235 0.68963,-4.03715 0.59569,-4.47913 -0.0939,-0.44198 -2.5498,-3.43681 -2.36602,-3.8496 0.18379,-0.41279 4.05267,-0.59166 4.44398,-0.81759 0.39132,-0.22593 2.48067,-3.48704 2.93005,-3.4398 0.44938,0.0472 1.81505,3.67147 2.15084,3.97382 0.3358,0.30236 4.08294,1.2817 4.17689,1.72369 0.0939,0.44198 -2.9309,2.86076 -3.11469,3.27355 -0.18379,0.41279 0.0427,4.27917 -0.34859,4.5051 z"
             transform="matrix(1.511423,-0.16366377,0.16366377,1.511423,-755.37346,-191.93651)" />
        </g>
      </g>
    </g>
  </g>
</svg>
